<mxfile host="app.diagrams.net" modified="2024-07-11T18:32:14.453Z" agent="Mozilla/5.0 (X11; Linux x86_64) AppleWebKit/537.36 (KHTML, like Gecko) Chrome/119.0.0.0 Safari/537.36" etag="6uEzE9MIFxXND258Avro" version="24.6.4" type="device">
  <diagram name="Page-1" id="cg5gYV7Y8AmQi6CofNIP">
    <mxGraphModel dx="983" dy="526" grid="1" gridSize="10" guides="1" tooltips="1" connect="1" arrows="1" fold="1" page="1" pageScale="1" pageWidth="850" pageHeight="1100" math="0" shadow="0">
      <root>
        <mxCell id="0" />
        <mxCell id="1" parent="0" />
        <mxCell id="kTRkMbL0CPC9G1YZk2tO-2" value="Soil monitoring" style="shape=parallelogram;perimeter=parallelogramPerimeter;whiteSpace=wrap;html=1;fixedSize=1;" parent="1" vertex="1">
          <mxGeometry x="468" y="20" width="122" height="40" as="geometry" />
        </mxCell>
        <mxCell id="kTRkMbL0CPC9G1YZk2tO-6" style="edgeStyle=orthogonalEdgeStyle;rounded=0;orthogonalLoop=1;jettySize=auto;html=1;entryX=0.028;entryY=0.661;entryDx=0;entryDy=0;endArrow=none;endFill=0;entryPerimeter=0;" parent="1" source="kTRkMbL0CPC9G1YZk2tO-3" target="kTRkMbL0CPC9G1YZk2tO-4" edge="1">
          <mxGeometry relative="1" as="geometry">
            <Array as="points">
              <mxPoint x="500" y="97" />
            </Array>
          </mxGeometry>
        </mxCell>
        <mxCell id="kTRkMbL0CPC9G1YZk2tO-3" value="Get temperature" style="shape=parallelogram;perimeter=parallelogramPerimeter;whiteSpace=wrap;html=1;fixedSize=1;" parent="1" vertex="1">
          <mxGeometry x="430.5" y="140" width="122" height="40" as="geometry" />
        </mxCell>
        <mxCell id="kTRkMbL0CPC9G1YZk2tO-5" value="" style="edgeStyle=orthogonalEdgeStyle;rounded=0;orthogonalLoop=1;jettySize=auto;html=1;" parent="1" source="kTRkMbL0CPC9G1YZk2tO-4" target="kTRkMbL0CPC9G1YZk2tO-2" edge="1">
          <mxGeometry relative="1" as="geometry">
            <Array as="points">
              <mxPoint x="500" y="95" />
            </Array>
          </mxGeometry>
        </mxCell>
        <mxCell id="kTRkMbL0CPC9G1YZk2tO-4" value="" style="ellipse;whiteSpace=wrap;html=1;aspect=fixed;" parent="1" vertex="1">
          <mxGeometry x="500" y="90" width="10" height="10" as="geometry" />
        </mxCell>
        <mxCell id="kTRkMbL0CPC9G1YZk2tO-9" value="" style="edgeStyle=orthogonalEdgeStyle;rounded=0;orthogonalLoop=1;jettySize=auto;html=1;" parent="1" source="kTRkMbL0CPC9G1YZk2tO-8" target="kTRkMbL0CPC9G1YZk2tO-3" edge="1">
          <mxGeometry relative="1" as="geometry" />
        </mxCell>
        <mxCell id="kTRkMbL0CPC9G1YZk2tO-8" value="temperature&lt;div&gt;sensor&lt;/div&gt;" style="shape=hexagon;perimeter=hexagonPerimeter2;whiteSpace=wrap;html=1;fixedSize=1;" parent="1" vertex="1">
          <mxGeometry x="239.5" y="140" width="120" height="40" as="geometry" />
        </mxCell>
        <mxCell id="kTRkMbL0CPC9G1YZk2tO-10" value="temp: float32" style="ellipse;whiteSpace=wrap;html=1;" parent="1" vertex="1">
          <mxGeometry x="56" y="140" width="90" height="40" as="geometry" />
        </mxCell>
        <mxCell id="kTRkMbL0CPC9G1YZk2tO-11" style="edgeStyle=orthogonalEdgeStyle;rounded=0;orthogonalLoop=1;jettySize=auto;html=1;entryX=0;entryY=0.5;entryDx=0;entryDy=0;endArrow=none;endFill=0;" parent="1" source="kTRkMbL0CPC9G1YZk2tO-10" target="kTRkMbL0CPC9G1YZk2tO-8" edge="1">
          <mxGeometry relative="1" as="geometry" />
        </mxCell>
        <mxCell id="kTRkMbL0CPC9G1YZk2tO-13" value="" style="edgeStyle=orthogonalEdgeStyle;rounded=0;orthogonalLoop=1;jettySize=auto;html=1;" parent="1" source="kTRkMbL0CPC9G1YZk2tO-12" target="kTRkMbL0CPC9G1YZk2tO-3" edge="1">
          <mxGeometry relative="1" as="geometry" />
        </mxCell>
        <mxCell id="kTRkMbL0CPC9G1YZk2tO-12" value="Can&#39;t get precise temperature" style="shape=parallelogram;perimeter=parallelogramPerimeter;whiteSpace=wrap;html=1;fixedSize=1;flipH=1;" parent="1" vertex="1">
          <mxGeometry x="252" y="220" width="138" height="40" as="geometry" />
        </mxCell>
        <mxCell id="kTRkMbL0CPC9G1YZk2tO-14" value="" style="endArrow=none;html=1;rounded=0;" parent="1" edge="1">
          <mxGeometry width="50" height="50" relative="1" as="geometry">
            <mxPoint x="481.5" y="200" as="sourcePoint" />
            <mxPoint x="501.5" y="200" as="targetPoint" />
          </mxGeometry>
        </mxCell>
        <mxCell id="kTRkMbL0CPC9G1YZk2tO-15" value="Sensor was&lt;div&gt;broken&lt;/div&gt;" style="shape=parallelogram;perimeter=parallelogramPerimeter;whiteSpace=wrap;html=1;fixedSize=1;flipH=1;" parent="1" vertex="1">
          <mxGeometry x="90" y="285" width="99" height="40" as="geometry" />
        </mxCell>
        <mxCell id="kTRkMbL0CPC9G1YZk2tO-25" style="edgeStyle=orthogonalEdgeStyle;rounded=0;orthogonalLoop=1;jettySize=auto;html=1;" parent="1" source="kTRkMbL0CPC9G1YZk2tO-16" target="kTRkMbL0CPC9G1YZk2tO-12" edge="1">
          <mxGeometry relative="1" as="geometry" />
        </mxCell>
        <mxCell id="kTRkMbL0CPC9G1YZk2tO-16" value="Sensor was&lt;div&gt;Stolen&lt;/div&gt;" style="shape=parallelogram;perimeter=parallelogramPerimeter;whiteSpace=wrap;html=1;fixedSize=1;flipH=1;" parent="1" vertex="1">
          <mxGeometry x="271.5" y="310" width="100" height="40" as="geometry" />
        </mxCell>
        <mxCell id="kTRkMbL0CPC9G1YZk2tO-17" value="Na temperature&lt;div&gt;&lt;span style=&quot;background-color: initial;&quot;&gt;sensor&lt;/span&gt;&lt;/div&gt;" style="shape=parallelogram;perimeter=parallelogramPerimeter;whiteSpace=wrap;html=1;fixedSize=1;flipH=1;" parent="1" vertex="1">
          <mxGeometry x="600" y="394" width="200" height="40" as="geometry" />
        </mxCell>
        <mxCell id="kTRkMbL0CPC9G1YZk2tO-22" style="edgeStyle=orthogonalEdgeStyle;rounded=0;orthogonalLoop=1;jettySize=auto;html=1;entryX=0.607;entryY=1.004;entryDx=0;entryDy=0;entryPerimeter=0;" parent="1" edge="1">
          <mxGeometry relative="1" as="geometry">
            <mxPoint x="100" y="393.84" as="sourcePoint" />
            <mxPoint x="128.9069999999997" y="325" as="targetPoint" />
            <Array as="points">
              <mxPoint x="100" y="380" />
              <mxPoint x="130" y="380" />
              <mxPoint x="130" y="350" />
              <mxPoint x="129" y="350" />
            </Array>
          </mxGeometry>
        </mxCell>
        <mxCell id="kTRkMbL0CPC9G1YZk2tO-20" value="Bitten by&amp;nbsp;&lt;div&gt;a animal&lt;br&gt;&lt;/div&gt;" style="shape=parallelogram;perimeter=parallelogramPerimeter;whiteSpace=wrap;html=1;fixedSize=1;flipH=1;strokeWidth=2;" parent="1" vertex="1">
          <mxGeometry x="37" y="394" width="99" height="40" as="geometry" />
        </mxCell>
        <mxCell id="kTRkMbL0CPC9G1YZk2tO-21" value="&lt;div&gt;Broken by&lt;/div&gt;&lt;div&gt;a car&lt;br&gt;&lt;/div&gt;" style="shape=parallelogram;perimeter=parallelogramPerimeter;whiteSpace=wrap;html=1;fixedSize=1;flipH=1;strokeWidth=2;" parent="1" vertex="1">
          <mxGeometry x="130" y="394" width="99" height="40" as="geometry" />
        </mxCell>
        <mxCell id="kTRkMbL0CPC9G1YZk2tO-23" style="edgeStyle=orthogonalEdgeStyle;rounded=0;orthogonalLoop=1;jettySize=auto;html=1;entryX=0.375;entryY=1.004;entryDx=0;entryDy=0;entryPerimeter=0;" parent="1" source="kTRkMbL0CPC9G1YZk2tO-21" target="kTRkMbL0CPC9G1YZk2tO-15" edge="1">
          <mxGeometry relative="1" as="geometry" />
        </mxCell>
        <mxCell id="kTRkMbL0CPC9G1YZk2tO-24" style="edgeStyle=orthogonalEdgeStyle;rounded=0;orthogonalLoop=1;jettySize=auto;html=1;entryX=0.679;entryY=1.006;entryDx=0;entryDy=0;entryPerimeter=0;exitX=0.549;exitY=0.017;exitDx=0;exitDy=0;exitPerimeter=0;" parent="1" source="kTRkMbL0CPC9G1YZk2tO-15" target="kTRkMbL0CPC9G1YZk2tO-12" edge="1">
          <mxGeometry relative="1" as="geometry">
            <Array as="points">
              <mxPoint x="135" y="280" />
              <mxPoint x="296" y="280" />
            </Array>
          </mxGeometry>
        </mxCell>
        <mxCell id="kTRkMbL0CPC9G1YZk2tO-26" style="edgeStyle=orthogonalEdgeStyle;rounded=0;orthogonalLoop=1;jettySize=auto;html=1;entryX=0.355;entryY=0.997;entryDx=0;entryDy=0;entryPerimeter=0;" parent="1" source="kTRkMbL0CPC9G1YZk2tO-17" target="kTRkMbL0CPC9G1YZk2tO-12" edge="1">
          <mxGeometry relative="1" as="geometry">
            <Array as="points">
              <mxPoint x="470" y="290" />
              <mxPoint x="341" y="290" />
            </Array>
          </mxGeometry>
        </mxCell>
        <mxCell id="kTRkMbL0CPC9G1YZk2tO-27" value="Human intervention" style="shape=parallelogram;perimeter=parallelogramPerimeter;whiteSpace=wrap;html=1;fixedSize=1;flipH=1;strokeWidth=2;" parent="1" vertex="1">
          <mxGeometry x="260.5" y="410" width="99" height="40" as="geometry" />
        </mxCell>
        <mxCell id="kTRkMbL0CPC9G1YZk2tO-28" value="Animal intervention" style="shape=parallelogram;perimeter=parallelogramPerimeter;whiteSpace=wrap;html=1;fixedSize=1;flipH=1;strokeWidth=2;" parent="1" vertex="1">
          <mxGeometry x="352" y="410" width="99" height="40" as="geometry" />
        </mxCell>
        <mxCell id="kTRkMbL0CPC9G1YZk2tO-29" style="edgeStyle=orthogonalEdgeStyle;rounded=0;orthogonalLoop=1;jettySize=auto;html=1;entryX=0.62;entryY=1.004;entryDx=0;entryDy=0;entryPerimeter=0;" parent="1" source="kTRkMbL0CPC9G1YZk2tO-27" target="kTRkMbL0CPC9G1YZk2tO-16" edge="1">
          <mxGeometry relative="1" as="geometry" />
        </mxCell>
        <mxCell id="kTRkMbL0CPC9G1YZk2tO-30" style="edgeStyle=orthogonalEdgeStyle;rounded=0;orthogonalLoop=1;jettySize=auto;html=1;entryX=0.317;entryY=0.996;entryDx=0;entryDy=0;entryPerimeter=0;" parent="1" source="kTRkMbL0CPC9G1YZk2tO-28" target="kTRkMbL0CPC9G1YZk2tO-16" edge="1">
          <mxGeometry relative="1" as="geometry">
            <Array as="points">
              <mxPoint x="400" y="380" />
              <mxPoint x="340" y="380" />
            </Array>
          </mxGeometry>
        </mxCell>
        <mxCell id="kTRkMbL0CPC9G1YZk2tO-52" style="edgeStyle=orthogonalEdgeStyle;rounded=0;orthogonalLoop=1;jettySize=auto;html=1;entryX=0.25;entryY=1;entryDx=0;entryDy=0;" parent="1" source="kTRkMbL0CPC9G1YZk2tO-31" target="kTRkMbL0CPC9G1YZk2tO-17" edge="1">
          <mxGeometry relative="1" as="geometry">
            <Array as="points">
              <mxPoint x="455" y="470" />
              <mxPoint x="650" y="470" />
            </Array>
          </mxGeometry>
        </mxCell>
        <mxCell id="kTRkMbL0CPC9G1YZk2tO-31" value="Network&lt;div&gt;issue&lt;/div&gt;" style="shape=parallelogram;perimeter=parallelogramPerimeter;whiteSpace=wrap;html=1;fixedSize=1;flipH=1;strokeWidth=2;" parent="1" vertex="1">
          <mxGeometry x="410" y="510" width="90" height="40" as="geometry" />
        </mxCell>
        <mxCell id="kTRkMbL0CPC9G1YZk2tO-32" value="Cable&lt;div&gt;issue&lt;/div&gt;" style="shape=parallelogram;perimeter=parallelogramPerimeter;whiteSpace=wrap;html=1;fixedSize=1;flipH=1;strokeWidth=2;" parent="1" vertex="1">
          <mxGeometry x="490" y="510" width="90" height="40" as="geometry" />
        </mxCell>
        <mxCell id="kTRkMbL0CPC9G1YZk2tO-33" value="Software&lt;div&gt;exception error&lt;/div&gt;" style="shape=parallelogram;perimeter=parallelogramPerimeter;whiteSpace=wrap;html=1;fixedSize=1;flipH=1;strokeWidth=2;" parent="1" vertex="1">
          <mxGeometry x="640" y="510" width="130" height="40" as="geometry" />
        </mxCell>
        <mxCell id="kTRkMbL0CPC9G1YZk2tO-35" value="Battery&lt;div&gt;drain&lt;br&gt;&lt;/div&gt;" style="shape=parallelogram;perimeter=parallelogramPerimeter;whiteSpace=wrap;html=1;fixedSize=1;flipH=1;strokeWidth=2;" parent="1" vertex="1">
          <mxGeometry x="570" y="510" width="80" height="40" as="geometry" />
        </mxCell>
        <mxCell id="kTRkMbL0CPC9G1YZk2tO-36" value="&lt;div&gt;Sensor&lt;/div&gt;&lt;div&gt;doesn&#39;t work&lt;br&gt;&lt;/div&gt;" style="shape=parallelogram;perimeter=parallelogramPerimeter;whiteSpace=wrap;html=1;fixedSize=1;flipH=1;strokeWidth=2;" parent="1" vertex="1">
          <mxGeometry x="760" y="510" width="115" height="40" as="geometry" />
        </mxCell>
        <mxCell id="kTRkMbL0CPC9G1YZk2tO-37" value="&lt;div&gt;Sensor is not connect&lt;br&gt;&lt;/div&gt;" style="shape=parallelogram;perimeter=parallelogramPerimeter;whiteSpace=wrap;html=1;fixedSize=1;flipH=1;strokeWidth=2;" parent="1" vertex="1">
          <mxGeometry x="990" y="510" width="115" height="40" as="geometry" />
        </mxCell>
        <mxCell id="kTRkMbL0CPC9G1YZk2tO-38" value="&lt;div&gt;Board (HW) issue&lt;br&gt;&lt;/div&gt;" style="shape=parallelogram;perimeter=parallelogramPerimeter;whiteSpace=wrap;html=1;fixedSize=1;flipH=1;strokeWidth=2;" parent="1" vertex="1">
          <mxGeometry x="870" y="510" width="125" height="40" as="geometry" />
        </mxCell>
        <mxCell id="kTRkMbL0CPC9G1YZk2tO-48" value="" style="ellipse;whiteSpace=wrap;html=1;aspect=fixed;" parent="1" vertex="1">
          <mxGeometry x="390" y="284" width="10" height="10" as="geometry" />
        </mxCell>
        <mxCell id="kTRkMbL0CPC9G1YZk2tO-50" value="" style="ellipse;whiteSpace=wrap;html=1;aspect=fixed;" parent="1" vertex="1">
          <mxGeometry x="316" y="281" width="10" height="10" as="geometry" />
        </mxCell>
        <mxCell id="kTRkMbL0CPC9G1YZk2tO-51" value="" style="ellipse;whiteSpace=wrap;html=1;aspect=fixed;" parent="1" vertex="1">
          <mxGeometry x="250" y="275" width="10" height="10" as="geometry" />
        </mxCell>
        <mxCell id="kTRkMbL0CPC9G1YZk2tO-53" style="edgeStyle=orthogonalEdgeStyle;rounded=0;orthogonalLoop=1;jettySize=auto;html=1;entryX=0.664;entryY=1.021;entryDx=0;entryDy=0;entryPerimeter=0;" parent="1" source="kTRkMbL0CPC9G1YZk2tO-32" target="kTRkMbL0CPC9G1YZk2tO-17" edge="1">
          <mxGeometry relative="1" as="geometry">
            <Array as="points">
              <mxPoint x="500" y="480" />
              <mxPoint x="667" y="480" />
            </Array>
          </mxGeometry>
        </mxCell>
        <mxCell id="kTRkMbL0CPC9G1YZk2tO-54" style="edgeStyle=orthogonalEdgeStyle;rounded=0;orthogonalLoop=1;jettySize=auto;html=1;entryX=0.581;entryY=1.015;entryDx=0;entryDy=0;entryPerimeter=0;" parent="1" source="kTRkMbL0CPC9G1YZk2tO-35" target="kTRkMbL0CPC9G1YZk2tO-17" edge="1">
          <mxGeometry relative="1" as="geometry">
            <Array as="points">
              <mxPoint x="610" y="490" />
              <mxPoint x="684" y="490" />
            </Array>
          </mxGeometry>
        </mxCell>
        <mxCell id="kTRkMbL0CPC9G1YZk2tO-55" style="edgeStyle=orthogonalEdgeStyle;rounded=0;orthogonalLoop=1;jettySize=auto;html=1;entryX=0.475;entryY=1.004;entryDx=0;entryDy=0;entryPerimeter=0;" parent="1" source="kTRkMbL0CPC9G1YZk2tO-33" target="kTRkMbL0CPC9G1YZk2tO-17" edge="1">
          <mxGeometry relative="1" as="geometry" />
        </mxCell>
        <mxCell id="kTRkMbL0CPC9G1YZk2tO-56" style="edgeStyle=orthogonalEdgeStyle;rounded=0;orthogonalLoop=1;jettySize=auto;html=1;entryX=0.403;entryY=1.004;entryDx=0;entryDy=0;entryPerimeter=0;" parent="1" source="kTRkMbL0CPC9G1YZk2tO-36" target="kTRkMbL0CPC9G1YZk2tO-17" edge="1">
          <mxGeometry relative="1" as="geometry" />
        </mxCell>
        <mxCell id="kTRkMbL0CPC9G1YZk2tO-57" style="edgeStyle=orthogonalEdgeStyle;rounded=0;orthogonalLoop=1;jettySize=auto;html=1;entryX=0.29;entryY=1.004;entryDx=0;entryDy=0;entryPerimeter=0;" parent="1" source="kTRkMbL0CPC9G1YZk2tO-38" target="kTRkMbL0CPC9G1YZk2tO-17" edge="1">
          <mxGeometry relative="1" as="geometry">
            <Array as="points">
              <mxPoint x="933" y="460" />
              <mxPoint x="742" y="460" />
            </Array>
          </mxGeometry>
        </mxCell>
        <mxCell id="kTRkMbL0CPC9G1YZk2tO-58" style="edgeStyle=orthogonalEdgeStyle;rounded=0;orthogonalLoop=1;jettySize=auto;html=1;entryX=0.124;entryY=0.981;entryDx=0;entryDy=0;entryPerimeter=0;" parent="1" source="kTRkMbL0CPC9G1YZk2tO-37" target="kTRkMbL0CPC9G1YZk2tO-17" edge="1">
          <mxGeometry relative="1" as="geometry">
            <Array as="points">
              <mxPoint x="1047" y="450" />
              <mxPoint x="775" y="450" />
            </Array>
          </mxGeometry>
        </mxCell>
        <mxCell id="kTRkMbL0CPC9G1YZk2tO-60" value="" style="edgeStyle=orthogonalEdgeStyle;rounded=0;orthogonalLoop=1;jettySize=auto;html=1;" parent="1" source="kTRkMbL0CPC9G1YZk2tO-59" target="kTRkMbL0CPC9G1YZk2tO-36" edge="1">
          <mxGeometry relative="1" as="geometry" />
        </mxCell>
        <mxCell id="kTRkMbL0CPC9G1YZk2tO-64" value="" style="edgeStyle=orthogonalEdgeStyle;rounded=0;orthogonalLoop=1;jettySize=auto;html=1;" parent="1" source="kTRkMbL0CPC9G1YZk2tO-59" target="kTRkMbL0CPC9G1YZk2tO-63" edge="1">
          <mxGeometry relative="1" as="geometry" />
        </mxCell>
        <mxCell id="kTRkMbL0CPC9G1YZk2tO-59" value="&lt;div&gt;Alarm to admin&lt;br&gt;&lt;/div&gt;" style="shape=parallelogram;perimeter=parallelogramPerimeter;whiteSpace=wrap;html=1;fixedSize=1;flipH=0;" parent="1" vertex="1">
          <mxGeometry x="760" y="580" width="115" height="40" as="geometry" />
        </mxCell>
        <mxCell id="kTRkMbL0CPC9G1YZk2tO-62" value="" style="endArrow=none;html=1;rounded=0;" parent="1" edge="1">
          <mxGeometry width="50" height="50" relative="1" as="geometry">
            <mxPoint x="600" y="567" as="sourcePoint" />
            <mxPoint x="620" y="567" as="targetPoint" />
          </mxGeometry>
        </mxCell>
        <mxCell id="kTRkMbL0CPC9G1YZk2tO-63" value="Ping lost check service" style="shape=hexagon;perimeter=hexagonPerimeter2;whiteSpace=wrap;html=1;fixedSize=1;" parent="1" vertex="1">
          <mxGeometry x="737.5" y="660" width="160" height="40" as="geometry" />
        </mxCell>
        <mxCell id="kTRkMbL0CPC9G1YZk2tO-65" value="&lt;div&gt;Backup battery&lt;br&gt;&lt;/div&gt;" style="shape=parallelogram;perimeter=parallelogramPerimeter;whiteSpace=wrap;html=1;fixedSize=1;flipH=0;" parent="1" vertex="1">
          <mxGeometry x="552.5" y="580" width="115" height="40" as="geometry" />
        </mxCell>
        <mxCell id="kTRkMbL0CPC9G1YZk2tO-66" style="edgeStyle=orthogonalEdgeStyle;rounded=0;orthogonalLoop=1;jettySize=auto;html=1;entryX=0.5;entryY=1;entryDx=0;entryDy=0;" parent="1" source="kTRkMbL0CPC9G1YZk2tO-65" target="kTRkMbL0CPC9G1YZk2tO-35" edge="1">
          <mxGeometry relative="1" as="geometry" />
        </mxCell>
        <mxCell id="kTRkMbL0CPC9G1YZk2tO-67" value="&lt;div&gt;Alternative services (servers)&lt;br&gt;&lt;/div&gt;" style="shape=parallelogram;perimeter=parallelogramPerimeter;whiteSpace=wrap;html=1;fixedSize=1;flipH=0;" parent="1" vertex="1">
          <mxGeometry x="590" y="640" width="90" height="40" as="geometry" />
        </mxCell>
        <mxCell id="kTRkMbL0CPC9G1YZk2tO-68" style="edgeStyle=orthogonalEdgeStyle;rounded=0;orthogonalLoop=1;jettySize=auto;html=1;entryX=0.544;entryY=1.015;entryDx=0;entryDy=0;entryPerimeter=0;" parent="1" source="kTRkMbL0CPC9G1YZk2tO-67" target="kTRkMbL0CPC9G1YZk2tO-33" edge="1">
          <mxGeometry relative="1" as="geometry">
            <Array as="points">
              <mxPoint x="670" y="600" />
              <mxPoint x="699" y="600" />
            </Array>
          </mxGeometry>
        </mxCell>
        <mxCell id="kTRkMbL0CPC9G1YZk2tO-69" value="&lt;div&gt;Online debug&lt;/div&gt;&lt;div&gt;(OTA)&lt;br&gt;&lt;/div&gt;" style="shape=parallelogram;perimeter=parallelogramPerimeter;whiteSpace=wrap;html=1;fixedSize=1;flipH=0;" parent="1" vertex="1">
          <mxGeometry x="610" y="700" width="120" height="40" as="geometry" />
        </mxCell>
        <mxCell id="kTRkMbL0CPC9G1YZk2tO-70" style="edgeStyle=orthogonalEdgeStyle;rounded=0;orthogonalLoop=1;jettySize=auto;html=1;entryX=0.339;entryY=1.043;entryDx=0;entryDy=0;entryPerimeter=0;" parent="1" source="kTRkMbL0CPC9G1YZk2tO-69" target="kTRkMbL0CPC9G1YZk2tO-33" edge="1">
          <mxGeometry relative="1" as="geometry">
            <Array as="points">
              <mxPoint x="700" y="625" />
              <mxPoint x="726" y="625" />
            </Array>
          </mxGeometry>
        </mxCell>
        <mxCell id="kTRkMbL0CPC9G1YZk2tO-71" value="" style="endArrow=none;html=1;rounded=0;" parent="1" edge="1">
          <mxGeometry width="50" height="50" relative="1" as="geometry">
            <mxPoint x="718" y="577" as="sourcePoint" />
            <mxPoint x="738" y="577" as="targetPoint" />
          </mxGeometry>
        </mxCell>
        <mxCell id="kTRkMbL0CPC9G1YZk2tO-72" value="" style="endArrow=none;html=1;rounded=0;" parent="1" edge="1">
          <mxGeometry width="50" height="50" relative="1" as="geometry">
            <mxPoint x="690" y="574" as="sourcePoint" />
            <mxPoint x="710" y="574" as="targetPoint" />
          </mxGeometry>
        </mxCell>
        <mxCell id="kTRkMbL0CPC9G1YZk2tO-73" value="&lt;div&gt;&lt;font style=&quot;font-size: 8px;&quot;&gt;Underground cabling (Management)&lt;/font&gt;&lt;br&gt;&lt;/div&gt;" style="shape=parallelogram;perimeter=parallelogramPerimeter;whiteSpace=wrap;html=1;fixedSize=1;flipH=0;" parent="1" vertex="1">
          <mxGeometry x="410" y="600" width="115" height="40" as="geometry" />
        </mxCell>
        <mxCell id="kTRkMbL0CPC9G1YZk2tO-74" style="edgeStyle=orthogonalEdgeStyle;rounded=0;orthogonalLoop=1;jettySize=auto;html=1;entryX=0.645;entryY=1.031;entryDx=0;entryDy=0;entryPerimeter=0;" parent="1" source="kTRkMbL0CPC9G1YZk2tO-73" target="kTRkMbL0CPC9G1YZk2tO-32" edge="1">
          <mxGeometry relative="1" as="geometry" />
        </mxCell>
        <mxCell id="kTRkMbL0CPC9G1YZk2tO-75" value="" style="endArrow=none;html=1;rounded=0;" parent="1" edge="1">
          <mxGeometry width="50" height="50" relative="1" as="geometry">
            <mxPoint x="513" y="566" as="sourcePoint" />
            <mxPoint x="533" y="566" as="targetPoint" />
          </mxGeometry>
        </mxCell>
        <mxCell id="kTRkMbL0CPC9G1YZk2tO-76" value="&lt;div&gt;&lt;font style=&quot;font-size: 12px;&quot;&gt;Wireless network&lt;/font&gt;&lt;br&gt;&lt;/div&gt;" style="shape=parallelogram;perimeter=parallelogramPerimeter;whiteSpace=wrap;html=1;fixedSize=1;flipH=0;" parent="1" vertex="1">
          <mxGeometry x="451" y="660" width="115" height="40" as="geometry" />
        </mxCell>
        <mxCell id="kTRkMbL0CPC9G1YZk2tO-77" style="edgeStyle=orthogonalEdgeStyle;rounded=0;orthogonalLoop=1;jettySize=auto;html=1;entryX=0.343;entryY=1.079;entryDx=0;entryDy=0;entryPerimeter=0;" parent="1" source="kTRkMbL0CPC9G1YZk2tO-76" target="kTRkMbL0CPC9G1YZk2tO-32" edge="1">
          <mxGeometry relative="1" as="geometry">
            <Array as="points">
              <mxPoint x="540" y="605" />
              <mxPoint x="549" y="605" />
            </Array>
          </mxGeometry>
        </mxCell>
        <mxCell id="kTRkMbL0CPC9G1YZk2tO-78" value="" style="endArrow=none;html=1;rounded=0;" parent="1" edge="1">
          <mxGeometry width="50" height="50" relative="1" as="geometry">
            <mxPoint x="540" y="576" as="sourcePoint" />
            <mxPoint x="560" y="576" as="targetPoint" />
          </mxGeometry>
        </mxCell>
        <mxCell id="kTRkMbL0CPC9G1YZk2tO-95" style="edgeStyle=orthogonalEdgeStyle;rounded=0;orthogonalLoop=1;jettySize=auto;html=1;entryX=0.5;entryY=1;entryDx=0;entryDy=0;" parent="1" source="kTRkMbL0CPC9G1YZk2tO-79" target="kTRkMbL0CPC9G1YZk2tO-88" edge="1">
          <mxGeometry relative="1" as="geometry" />
        </mxCell>
        <mxCell id="kTRkMbL0CPC9G1YZk2tO-79" value="&lt;div&gt;Physical lock&lt;br&gt;&lt;/div&gt;" style="shape=parallelogram;perimeter=parallelogramPerimeter;whiteSpace=wrap;html=1;fixedSize=1;flipH=1;flipV=1;" parent="1" vertex="1">
          <mxGeometry x="301" y="530" width="99" height="40" as="geometry" />
        </mxCell>
        <mxCell id="kTRkMbL0CPC9G1YZk2tO-91" style="edgeStyle=orthogonalEdgeStyle;rounded=0;orthogonalLoop=1;jettySize=auto;html=1;entryX=0.5;entryY=1;entryDx=0;entryDy=0;" parent="1" source="kTRkMbL0CPC9G1YZk2tO-80" target="kTRkMbL0CPC9G1YZk2tO-89" edge="1">
          <mxGeometry relative="1" as="geometry" />
        </mxCell>
        <mxCell id="kTRkMbL0CPC9G1YZk2tO-80" value="&lt;div&gt;Shield&lt;br&gt;&lt;/div&gt;&lt;div&gt;protection&lt;/div&gt;" style="shape=parallelogram;perimeter=parallelogramPerimeter;whiteSpace=wrap;html=1;fixedSize=1;flipH=1;flipV=1;" parent="1" vertex="1">
          <mxGeometry x="91.5" y="510" width="99" height="40" as="geometry" />
        </mxCell>
        <mxCell id="kTRkMbL0CPC9G1YZk2tO-81" value="" style="ellipse;whiteSpace=wrap;html=1;aspect=fixed;fillColor=#000000;strokeColor=#FFFFFF;" parent="1" vertex="1">
          <mxGeometry x="473" y="466" width="10" height="10" as="geometry" />
        </mxCell>
        <mxCell id="kTRkMbL0CPC9G1YZk2tO-82" value="" style="ellipse;whiteSpace=wrap;html=1;aspect=fixed;fillColor=#000000;strokeColor=#FFFFFF;" parent="1" vertex="1">
          <mxGeometry x="557" y="476" width="10" height="10" as="geometry" />
        </mxCell>
        <mxCell id="kTRkMbL0CPC9G1YZk2tO-83" value="" style="ellipse;whiteSpace=wrap;html=1;aspect=fixed;fillColor=#000000;strokeColor=#FFFFFF;" parent="1" vertex="1">
          <mxGeometry x="639" y="486" width="10" height="10" as="geometry" />
        </mxCell>
        <mxCell id="kTRkMbL0CPC9G1YZk2tO-84" value="" style="ellipse;whiteSpace=wrap;html=1;aspect=fixed;fillColor=#000000;strokeColor=#FFFFFF;" parent="1" vertex="1">
          <mxGeometry x="700" y="456" width="10" height="10" as="geometry" />
        </mxCell>
        <mxCell id="kTRkMbL0CPC9G1YZk2tO-85" value="" style="ellipse;whiteSpace=wrap;html=1;aspect=fixed;fillColor=#000000;strokeColor=#FFFFFF;" parent="1" vertex="1">
          <mxGeometry x="736" y="468" width="10" height="10" as="geometry" />
        </mxCell>
        <mxCell id="kTRkMbL0CPC9G1YZk2tO-86" value="" style="ellipse;whiteSpace=wrap;html=1;aspect=fixed;fillColor=#000000;strokeColor=#FFFFFF;" parent="1" vertex="1">
          <mxGeometry x="846" y="455" width="10" height="10" as="geometry" />
        </mxCell>
        <mxCell id="kTRkMbL0CPC9G1YZk2tO-87" value="" style="ellipse;whiteSpace=wrap;html=1;aspect=fixed;fillColor=#000000;strokeColor=#FFFFFF;" parent="1" vertex="1">
          <mxGeometry x="977" y="445" width="10" height="10" as="geometry" />
        </mxCell>
        <mxCell id="kTRkMbL0CPC9G1YZk2tO-99" style="edgeStyle=orthogonalEdgeStyle;rounded=0;orthogonalLoop=1;jettySize=auto;html=1;exitX=1;exitY=0.5;exitDx=0;exitDy=0;entryX=0.5;entryY=1;entryDx=0;entryDy=0;endArrow=none;endFill=0;" parent="1" source="kTRkMbL0CPC9G1YZk2tO-88" target="kTRkMbL0CPC9G1YZk2tO-28" edge="1">
          <mxGeometry relative="1" as="geometry" />
        </mxCell>
        <mxCell id="kTRkMbL0CPC9G1YZk2tO-88" value="" style="ellipse;whiteSpace=wrap;html=1;aspect=fixed;" parent="1" vertex="1">
          <mxGeometry x="349.5" y="478" width="10" height="10" as="geometry" />
        </mxCell>
        <mxCell id="kTRkMbL0CPC9G1YZk2tO-93" style="edgeStyle=orthogonalEdgeStyle;rounded=0;orthogonalLoop=1;jettySize=auto;html=1;exitX=0;exitY=0;exitDx=0;exitDy=0;endArrow=none;endFill=0;" parent="1" source="kTRkMbL0CPC9G1YZk2tO-89" target="kTRkMbL0CPC9G1YZk2tO-20" edge="1">
          <mxGeometry relative="1" as="geometry">
            <Array as="points">
              <mxPoint x="138" y="470" />
              <mxPoint x="87" y="470" />
            </Array>
          </mxGeometry>
        </mxCell>
        <mxCell id="kTRkMbL0CPC9G1YZk2tO-89" value="" style="ellipse;whiteSpace=wrap;html=1;aspect=fixed;" parent="1" vertex="1">
          <mxGeometry x="136" y="465" width="10" height="10" as="geometry" />
        </mxCell>
        <mxCell id="kTRkMbL0CPC9G1YZk2tO-92" value="" style="endArrow=none;html=1;rounded=0;" parent="1" edge="1">
          <mxGeometry width="50" height="50" relative="1" as="geometry">
            <mxPoint x="131" y="495" as="sourcePoint" />
            <mxPoint x="151" y="495" as="targetPoint" />
          </mxGeometry>
        </mxCell>
        <mxCell id="kTRkMbL0CPC9G1YZk2tO-94" style="edgeStyle=orthogonalEdgeStyle;rounded=0;orthogonalLoop=1;jettySize=auto;html=1;exitX=1;exitY=0.5;exitDx=0;exitDy=0;entryX=0.382;entryY=1.026;entryDx=0;entryDy=0;entryPerimeter=0;endArrow=none;endFill=0;" parent="1" source="kTRkMbL0CPC9G1YZk2tO-89" target="kTRkMbL0CPC9G1YZk2tO-21" edge="1">
          <mxGeometry relative="1" as="geometry" />
        </mxCell>
        <mxCell id="kTRkMbL0CPC9G1YZk2tO-96" value="" style="endArrow=none;html=1;rounded=0;" parent="1" edge="1">
          <mxGeometry width="50" height="50" relative="1" as="geometry">
            <mxPoint x="345" y="504" as="sourcePoint" />
            <mxPoint x="365" y="504" as="targetPoint" />
          </mxGeometry>
        </mxCell>
        <mxCell id="kTRkMbL0CPC9G1YZk2tO-97" style="edgeStyle=orthogonalEdgeStyle;rounded=0;orthogonalLoop=1;jettySize=auto;html=1;exitX=0;exitY=0;exitDx=0;exitDy=0;entryX=0.476;entryY=0.981;entryDx=0;entryDy=0;entryPerimeter=0;endArrow=none;endFill=0;" parent="1" source="kTRkMbL0CPC9G1YZk2tO-88" target="kTRkMbL0CPC9G1YZk2tO-27" edge="1">
          <mxGeometry relative="1" as="geometry">
            <Array as="points">
              <mxPoint x="351" y="470" />
              <mxPoint x="312" y="470" />
            </Array>
          </mxGeometry>
        </mxCell>
        <mxCell id="kTRkMbL0CPC9G1YZk2tO-100" value="" style="shape=umlActor;verticalLabelPosition=bottom;verticalAlign=top;html=1;outlineConnect=0;" parent="1" vertex="1">
          <mxGeometry x="259.5" y="170" width="5" height="10" as="geometry" />
        </mxCell>
        <mxCell id="kTRkMbL0CPC9G1YZk2tO-101" value="" style="shape=umlActor;verticalLabelPosition=bottom;verticalAlign=top;html=1;outlineConnect=0;" parent="1" vertex="1">
          <mxGeometry x="760" y="690" width="5" height="10" as="geometry" />
        </mxCell>
        <mxCell id="_2FrrZRkhR5JkEDc2Mqr-2" style="edgeStyle=orthogonalEdgeStyle;rounded=0;orthogonalLoop=1;jettySize=auto;html=1;entryX=0.5;entryY=1;entryDx=0;entryDy=0;" edge="1" parent="1" source="_2FrrZRkhR5JkEDc2Mqr-1" target="kTRkMbL0CPC9G1YZk2tO-31">
          <mxGeometry relative="1" as="geometry">
            <Array as="points">
              <mxPoint x="390" y="580" />
              <mxPoint x="455" y="580" />
            </Array>
          </mxGeometry>
        </mxCell>
        <mxCell id="_2FrrZRkhR5JkEDc2Mqr-1" value="&lt;div&gt;BTS bidirectional data transmission&lt;br&gt;&lt;/div&gt;" style="shape=parallelogram;perimeter=parallelogramPerimeter;whiteSpace=wrap;html=1;fixedSize=1;flipH=0;" vertex="1" parent="1">
          <mxGeometry x="301" y="650" width="150" height="40" as="geometry" />
        </mxCell>
        <mxCell id="_2FrrZRkhR5JkEDc2Mqr-3" value="" style="endArrow=none;html=1;rounded=0;" edge="1" parent="1">
          <mxGeometry width="50" height="50" relative="1" as="geometry">
            <mxPoint x="445" y="567" as="sourcePoint" />
            <mxPoint x="465" y="567" as="targetPoint" />
          </mxGeometry>
        </mxCell>
        <mxCell id="_2FrrZRkhR5JkEDc2Mqr-4" value="" style="ellipse;whiteSpace=wrap;html=1;aspect=fixed;fillColor=#000000;strokeColor=#FFFFFF;" vertex="1" parent="1">
          <mxGeometry x="335.5" y="361" width="10" height="10" as="geometry" />
        </mxCell>
        <mxCell id="_2FrrZRkhR5JkEDc2Mqr-5" value="" style="ellipse;whiteSpace=wrap;html=1;aspect=fixed;fillColor=#000000;strokeColor=#FFFFFF;" vertex="1" parent="1">
          <mxGeometry x="305.5" y="371" width="10" height="10" as="geometry" />
        </mxCell>
        <mxCell id="_2FrrZRkhR5JkEDc2Mqr-6" value="" style="ellipse;whiteSpace=wrap;html=1;aspect=fixed;fillColor=#000000;strokeColor=#FFFFFF;" vertex="1" parent="1">
          <mxGeometry x="146.5" y="341" width="10" height="10" as="geometry" />
        </mxCell>
        <mxCell id="_2FrrZRkhR5JkEDc2Mqr-7" value="" style="ellipse;whiteSpace=wrap;html=1;aspect=fixed;fillColor=#000000;strokeColor=#FFFFFF;" vertex="1" parent="1">
          <mxGeometry x="124.5" y="348" width="10" height="10" as="geometry" />
        </mxCell>
      </root>
    </mxGraphModel>
  </diagram>
</mxfile>
